# xmcd
#
# Track frame offsets:
#	150
#	14139
#	28406
#	42154
#	59417
#	75149
#	91422
#	103622
#	117408
#	134589
#	153265
#	167646
#	181465
#
# Disc length: 2590 seconds
# Revision: 0
# Processed by: cddbd v1.5.2PL0 Copyright (c) Steve Scherf et al.
# Submitted via: dBpowerAMP V12.0
#
DISCID=aa0a1c0d
DTITLE=Marie Hodson - Read Between The Lies
DYEAR=2008
DGENRE=Country
TTITLE0=One Too Many
TTITLE1=Little Things
TTITLE2=How Long Will This Last Chance last
TTITLE3=It Began To Rain
TTITLE4=Cowboys Love Texas
TTITLE5=16 Sunset Lane
TTITLE6=Riverbender
TTITLE7=Read Between The Lies
TTITLE8=Restless Heart
TTITLE9=The Reunion
TTITLE10=You Were
TTITLE11=Just Say No
TTITLE12=Reason Why
EXTD=
EXTT0=
EXTT1=
EXTT2=
EXTT3=
EXTT4=
EXTT5=
EXTT6=
EXTT7=
EXTT8=
EXTT9=
EXTT10=
EXTT11=
EXTT12=
PLAYORDER=
